<svg width="60" height="60" viewBox="0 0 60 60" fill="none" xmlns="http://www.w3.org/2000/svg">
<path d="M28.0878 48.7388C34.7815 47.3776 40.309 46.2507 40.3728 46.2357L40.489 46.2076L34.1703 37.5544C30.694 32.7957 27.8515 28.8826 27.8515 28.8601C27.8515 28.8376 34.3765 8.13006 34.414 8.05694C34.4271 8.03256 38.8671 16.8582 45.1784 29.4526L56.0046 51.0544L56.0872 51.2194H15.9209L28.0878 48.7388Z" fill="#0089D6"/>
<path d="M3.98438 46.0988C3.98438 46.0875 6.96187 40.1363 10.6012 32.8744L17.2181 19.6725L24.9375 12.225C29.1788 8.12815 32.6606 4.77003 32.6738 4.7644C32.646 4.88863 32.6045 5.00937 32.55 5.1244L24.1688 25.7982L15.9375 46.1044H9.95812C7.96692 46.1247 5.97554 46.1228 3.98438 46.0988V46.0988Z" fill="#0089D6"/>
</svg>
