<svg width="34" height="34" viewBox="0 0 34 34" fill="none" xmlns="http://www.w3.org/2000/svg">
<path d="M25.5 3.50625C23.0031 1.96562 20.1344 1.0625 17 1.0625V3.50625H25.5Z" fill="#ED4C5C"/>
<path d="M17 5.94999H28.475C27.5719 5.04686 26.5625 4.19687 25.5 3.50624H17V5.94999Z" fill="white"/>
<path d="M17 8.39375H30.4406C29.8562 7.49062 29.2187 6.69375 28.5281 5.95H17V8.39375Z" fill="#ED4C5C"/>
<path d="M17 10.8375H31.7156C31.3438 9.9875 30.9188 9.1375 30.4406 8.39375H17V10.8375Z" fill="white"/>
<path d="M17 13.2813H32.5125C32.3 12.4313 32.0344 11.6344 31.7156 10.8375H17V13.2813Z" fill="#ED4C5C"/>
<path d="M17 15.7781H32.8844C32.8313 14.9281 32.6719 14.1312 32.5125 13.3344H17V15.7781" fill="white"/>
<path d="M32.8844 15.7781H17V17H1.0625C1.0625 17.425 1.0625 17.7969 1.11562 18.2219H32.8844C32.9375 17.7969 32.9375 17.425 32.9375 17C32.9375 16.575 32.9375 16.15 32.8844 15.7781" fill="#ED4C5C"/>
<path d="M1.48748 20.6656H32.5125C32.725 19.8688 32.8312 19.0719 32.8844 18.2219H1.1156C1.16873 19.0188 1.27498 19.8688 1.48748 20.6656Z" fill="white"/>
<path d="M2.2843 23.1094H31.7156C32.0343 22.3125 32.2999 21.5156 32.5124 20.6656H1.48743C1.69993 21.5156 1.96555 22.3125 2.2843 23.1094Z" fill="#ED4C5C"/>
<path d="M3.5593 25.5531H30.4405C30.9187 24.7562 31.3437 23.9594 31.7155 23.1094H2.2843C2.65618 23.9594 3.08118 24.7562 3.5593 25.5531" fill="white"/>
<path d="M5.47195 27.9969H28.5282C29.2188 27.2531 29.9094 26.4031 30.4407 25.5531H3.55945C4.0907 26.4562 4.78132 27.2531 5.47195 27.9969Z" fill="#ED4C5C"/>
<path d="M8.44692 30.4406H25.5532C26.6688 29.75 27.625 28.9 28.5282 27.9969H5.47192C6.37505 28.9531 7.38442 29.75 8.44692 30.4406Z" fill="white"/>
<path d="M17 32.9375C20.1344 32.9375 23.0563 32.0344 25.5532 30.4406H8.4469C10.9438 32.0344 13.8657 32.9375 17 32.9375Z" fill="#ED4C5C"/>
<path d="M8.5 3.50625C7.38438 4.19687 6.375 5.04687 5.47188 5.95C4.72813 6.69375 4.09062 7.54375 3.55937 8.39375C3.08125 9.19063 2.60313 9.9875 2.28438 10.8375C1.96563 11.6344 1.7 12.4312 1.4875 13.2812C1.275 14.0781 1.16875 14.875 1.11562 15.725C1.0625 16.15 1.0625 16.575 1.0625 17H17V1.0625C13.8656 1.0625 10.9969 1.96562 8.5 3.50625Z" fill="#428BC1"/>
<path d="M13.2812 1.59375L13.5469 2.39062H14.3438L13.7062 2.92188L13.9188 3.71875L13.2812 3.24062L12.6437 3.71875L12.8563 2.92188L12.2188 2.39062H13.0156L13.2812 1.59375Z" fill="white"/>
<path d="M15.4062 4.78125L15.6719 5.57812H16.4688L15.8312 6.10938L16.0438 6.90625L15.4062 6.42813L14.7687 6.90625L14.9813 6.10938L14.3438 5.57812H15.1406L15.4062 4.78125Z" fill="white"/>
<path d="M11.1562 4.78125L11.4219 5.57812H12.2188L11.5812 6.10938L11.7938 6.90625L11.1562 6.42813L10.5187 6.90625L10.7313 6.10938L10.0938 5.57812H10.8906L11.1562 4.78125Z" fill="white"/>
<path d="M13.2812 7.96875L13.5469 8.76562H14.3438L13.7062 9.29688L13.9188 10.0938L13.2812 9.61563L12.6437 10.0938L12.8563 9.29688L12.2188 8.76562H13.0156L13.2812 7.96875Z" fill="white"/>
<path d="M9.03125 7.96875L9.29688 8.76562H10.0938L9.45625 9.29688L9.66875 10.0938L9.03125 9.61563L8.39375 10.0938L8.60625 9.29688L7.96875 8.76562H8.76562L9.03125 7.96875Z" fill="white"/>
<path d="M4.78125 7.96875L5.04688 8.76562H5.84375L5.20625 9.29688L5.41875 10.0938L4.78125 9.61563L4.14375 10.0938L4.35625 9.29688L3.71875 8.76562H4.51562L4.78125 7.96875Z" fill="white"/>
<path d="M15.4062 11.1562L15.6719 11.9531H16.4688L15.8312 12.4844L16.0438 13.2812L15.4062 12.8031L14.7687 13.2812L14.9813 12.4844L14.3438 11.9531H15.1406L15.4062 11.1562Z" fill="white"/>
<path d="M11.1562 11.1562L11.4219 11.9531H12.2188L11.5812 12.4844L11.7938 13.2812L11.1562 12.8031L10.5187 13.2812L10.7313 12.4844L10.0938 11.9531H10.8906L11.1562 11.1562Z" fill="white"/>
<path d="M6.90625 11.1562L7.17188 11.9531H7.96875L7.33125 12.4844L7.54375 13.2812L6.90625 12.8031L6.26875 13.2812L6.48125 12.4844L5.84375 11.9531H6.64062L6.90625 11.1562Z" fill="white"/>
<path d="M13.2812 14.3438L13.5469 15.1406H14.3438L13.7062 15.6719L13.9188 16.4688L13.2812 15.9906L12.6437 16.4688L12.8563 15.6719L12.2188 15.1406H13.0156L13.2812 14.3438Z" fill="white"/>
<path d="M9.03125 14.3438L9.29688 15.1406H10.0938L9.45625 15.6719L9.66875 16.4688L9.03125 15.9906L8.39375 16.4688L8.60625 15.6719L7.96875 15.1406H8.76562L9.03125 14.3438Z" fill="white"/>
<path d="M4.78125 14.3438L5.04688 15.1406H5.84375L5.20625 15.6719L5.41875 16.4688L4.78125 15.9906L4.14375 16.4688L4.35625 15.6719L3.71875 15.1406H4.51562L4.78125 14.3438Z" fill="white"/>
<path d="M6.26885 6.90625L6.90635 6.42813L7.54385 6.90625L7.27822 6.10938L7.91572 5.57812H7.11885L6.90635 4.78125L6.64072 5.57812H5.89697L6.53447 6.05625L6.26885 6.90625" fill="white"/>
<path d="M2.01877 13.2812L2.65627 12.8031L3.29377 13.2812L3.02815 12.4844L3.66565 11.9531H2.9219L2.65627 11.1562L2.39065 11.9531H1.8594C1.8594 12.0063 1.80627 12.0594 1.80627 12.1125L2.23127 12.4312L2.01877 13.2812" fill="white"/>
</svg>
