<svg width="34" height="34" viewBox="0 0 34 34" fill="none" xmlns="http://www.w3.org/2000/svg">
<path d="M1.0625 17C1.0625 20.1344 1.96562 23.0563 3.50625 25.5H30.4406C31.9812 23.0563 32.8844 20.1344 32.8844 17C32.8844 13.8656 31.9812 10.9437 30.4406 8.5H3.50625C1.96562 10.9437 1.0625 13.8656 1.0625 17Z" fill="#FFCE31"/>
<path d="M30.4937 8.5C27.6781 4.0375 22.6844 1.0625 17 1.0625C11.3156 1.0625 6.32185 4.0375 3.50623 8.5H30.4937Z" fill="#ED4C5C"/>
<path d="M3.50623 25.5C6.32185 29.9625 11.3156 32.9375 17 32.9375C22.6844 32.9375 27.6781 29.9625 30.4937 25.5H3.50623Z" fill="#ED4C5C"/>
<path d="M4.88757 15.2469H6.58757V16.2031H4.88757V15.2469Z" fill="#C8B100"/>
<path d="M4.88757 22.2594H6.6407V23.1625H4.88757V22.2594Z" fill="#C8B100"/>
<path d="M4.72815 20.7719C4.56877 20.8781 4.46252 20.9844 4.46252 21.0375C4.46252 21.0906 4.51565 21.1437 4.6219 21.1969C4.72815 21.25 4.8344 21.3562 4.78127 21.4625C4.88752 21.3562 4.94065 21.25 4.94065 21.1437C4.94065 20.9844 4.8344 20.825 4.72815 20.7719" fill="#ED4C5C"/>
<path d="M5.1532 16.2031H6.37507V22.2594H5.1532V16.2031Z" fill="white"/>
<path d="M7.65004 18.4344C7.38442 18.3281 6.90629 18.2219 6.37504 18.2219C6.21567 18.2219 6.00317 18.2219 5.79067 18.275C5.04692 18.3813 4.46254 18.7 4.51567 18.9125L4.25004 18.3281C4.19692 18.0625 4.83442 17.7437 5.63129 17.5844C5.89692 17.5312 6.16254 17.5312 6.37504 17.5312C6.90629 17.5312 7.38442 17.5844 7.65004 17.6906V18.4344" fill="#ED4C5C"/>
<path d="M5.15322 19.2313C4.83447 19.2313 4.56885 19.125 4.56885 18.9656C4.56885 18.8594 4.6751 18.7 4.8876 18.5938H5.20635L5.15322 19.2313Z" fill="#ED4C5C"/>
<path d="M6.375 18.7531C6.5875 18.8063 6.74687 18.8594 6.85312 18.9125C6.90625 18.9656 6.69375 19.1781 6.375 19.3375V18.7531" fill="#ED4C5C"/>
<path d="M4.35626 20.4C4.30313 20.2937 4.67501 20.0812 5.15313 19.9219C5.36563 19.8687 5.52501 19.7625 5.79063 19.6562C6.42813 19.3906 6.95938 19.0187 6.85313 18.9125L6.95938 19.55C7.01251 19.6562 6.58751 19.975 5.95001 20.2937C5.73751 20.4 5.36563 20.5594 5.15313 20.6125C4.78126 20.7187 4.46251 20.9312 4.46251 20.9844L4.35626 20.4" fill="#ED4C5C"/>
<path d="M16.3093 15.2469H18.0093V16.2031H16.3093V15.2469Z" fill="#C8B100"/>
<path d="M16.2562 22.2594H18.0094V23.1625H16.2562V22.2594Z" fill="#C8B100"/>
<path d="M18.1687 20.7719C18.3281 20.8781 18.4343 20.9844 18.4343 21.0375C18.4343 21.0906 18.3812 21.1437 18.2749 21.1969C18.1687 21.3031 18.0624 21.4625 18.1156 21.5156C18.0093 21.4094 17.9562 21.3031 17.9562 21.1969C17.9562 20.9844 18.0624 20.825 18.1687 20.7719" fill="#ED4C5C"/>
<path d="M16.5219 16.2031H17.7437V22.2594H16.5219V16.2031Z" fill="white"/>
<path d="M15.2468 18.4344C15.5125 18.3281 15.9906 18.2219 16.5218 18.2219C16.6812 18.2219 16.8937 18.2219 17.1062 18.275C17.85 18.3813 18.4343 18.7 18.3812 18.9125L18.6468 18.275C18.6999 18.0094 18.0625 17.6906 17.2656 17.5312H16.5218C15.9906 17.5312 15.5125 17.5844 15.2468 17.6906V18.4344" fill="#ED4C5C"/>
<path d="M17.7437 19.2313C18.0624 19.2313 18.3281 19.125 18.3281 18.9656C18.3281 18.8594 18.2218 18.7 18.0093 18.5938H17.6906L17.7437 19.2313Z" fill="#ED4C5C"/>
<path d="M16.5218 18.7531C16.3093 18.8063 16.1499 18.8594 16.0437 18.9125C15.9905 18.9656 16.203 19.1781 16.5218 19.3375V18.7531" fill="#ED4C5C"/>
<path d="M18.5405 20.4C18.5936 20.2938 18.2217 20.0813 17.7436 19.9219C17.5311 19.8688 17.3717 19.7625 17.1061 19.6563C16.4686 19.3906 15.9373 19.0188 16.0436 18.9125L15.9373 19.55C15.8842 19.6563 16.3092 19.975 16.9467 20.2938C17.1592 20.4 17.5311 20.5594 17.7436 20.6125C18.1155 20.7188 18.4342 20.9844 18.3811 21.0375L18.5405 20.4" fill="#ED4C5C"/>
<path d="M11.4218 11.8469C12.4312 11.8469 14.5031 12.0594 15.2468 12.8031C14.4499 14.7156 13.1749 13.9188 11.4218 13.9188C9.7218 13.9188 8.39368 14.7156 7.5968 12.8031C8.34055 12.0594 10.3593 11.8469 11.4218 11.8469Z" fill="#ED4C5C"/>
<path d="M14.0249 13.9719C13.3874 13.6 12.4311 13.5469 11.4217 13.5469C10.4124 13.5469 9.4561 13.6531 8.8186 13.9719L9.0311 14.875C9.61548 15.0344 10.4655 15.1406 11.4217 15.1406C12.378 15.1406 13.1749 15.0344 13.8124 14.875L14.0249 13.9719Z" fill="#C8B100"/>
<path d="M14.9281 11.6875C14.7156 11.5281 14.2906 11.3687 13.9187 11.3687C13.7593 11.3687 13.5999 11.3688 13.4406 11.4219C13.4406 11.4219 13.1218 10.9969 12.3781 10.9969C12.1124 10.9969 11.8999 11.05 11.6874 11.1563V11.1031C11.6343 10.9969 11.5281 10.8906 11.4218 10.8906C11.3156 10.8906 11.1562 11.05 11.1562 11.1563V11.2094C10.9437 11.1031 10.7312 11.05 10.4656 11.05C9.7218 11.05 9.40305 11.5281 9.40305 11.475C9.24368 11.4219 9.0843 11.4219 8.92493 11.4219C6.48118 11.4219 7.70305 13.0688 7.70305 13.0688L7.96868 12.75C7.3843 12.0063 7.91555 11.5812 8.97805 11.5812C9.13743 11.5812 9.24368 11.5812 9.34993 11.6344C8.97805 12.1656 9.66868 12.6437 9.66868 12.6437L9.82805 12.3781C9.45618 12.1125 9.40305 11.2094 10.4656 11.2094C10.7312 11.2094 10.9437 11.2625 11.1562 11.4219C11.1562 11.475 11.1031 12.2188 11.0499 12.325L11.4749 12.6969L11.8999 12.325C11.8468 12.1656 11.7937 11.475 11.7937 11.4219C11.9531 11.3156 12.2187 11.2094 12.4843 11.2094C13.5999 11.2094 13.5999 12.1125 13.1218 12.3781L13.2812 12.6437C13.2812 12.6437 13.8656 12.1656 13.5999 11.6344C13.7062 11.6344 13.8656 11.5812 13.9718 11.5812C15.2468 11.5812 15.2999 12.5375 14.9812 12.75L15.1937 13.0688C15.0874 13.0688 15.6718 12.325 14.9281 11.6875" fill="#C8B100"/>
<path d="M11.1031 10.6781C11.1031 10.5188 11.2625 10.3594 11.4219 10.3594C11.6344 10.3594 11.7407 10.5188 11.7407 10.6781C11.7407 10.8375 11.5813 10.9969 11.4219 10.9969C11.2625 10.9969 11.1031 10.8375 11.1031 10.6781Z" fill="#005BBF"/>
<path d="M11.3156 9.77501V9.93438H11.1563V10.0938H11.3156V10.625H11.1031V10.7844H11.7406L11.7938 10.6781L11.7406 10.625H11.5281V10.0938H11.6875V9.93438H11.5281V9.77501H11.3156Z" fill="#C8B100"/>
<path d="M11.4219 15.0344C10.5719 15.0344 9.82815 14.9281 9.24377 14.7688C9.82815 14.6094 10.5719 14.5031 11.4219 14.5031C12.2719 14.5031 13.0157 14.6094 13.6 14.7688C13.0688 14.9281 12.2719 15.0344 11.4219 15.0344Z" fill="#ED4C5C"/>
<path d="M11.475 24.225C10.4656 24.225 9.5094 23.9594 8.6594 23.5875C8.0219 23.2687 7.65002 22.6844 7.65002 21.9937V19.4437H15.3V21.9937C15.3 22.6844 14.875 23.3219 14.2906 23.5875C13.4406 24.0125 12.4844 24.225 11.475 24.225Z" fill="white"/>
<path d="M11.4219 15.1937H15.2469V19.4437H11.4219V15.1937Z" fill="white"/>
<path d="M11.475 21.9937C11.475 23.0031 10.625 23.8 9.56253 23.8C8.50002 23.8 7.65002 23.0031 7.65002 21.9937V19.4437H11.475V21.9937Z" fill="#ED4C5C"/>
<path d="M8.44678 23.4813C8.55303 23.5344 8.7124 23.6406 8.9249 23.6938V19.3375H8.4999L8.44678 23.4813Z" fill="#C8B100"/>
<path d="M7.5968 21.9406C7.5968 22.4719 7.8093 22.8969 8.0218 23.1094V19.3375H7.5968V21.9406Z" fill="#C8B100"/>
<path d="M9.29688 23.8H9.72187V19.3375H9.29688V23.8Z" fill="#C7B500"/>
<path d="M10.1469 23.6938C10.3062 23.6406 10.5187 23.5344 10.625 23.4813V19.3375H10.2L10.1469 23.6938" fill="#C8B100"/>
<path d="M7.5968 15.1937H11.4218V19.4437H7.5968V15.1937Z" fill="#ED4C5C"/>
<path d="M11.0499 23.1094C11.2624 22.95 11.4218 22.5781 11.4749 22.1531V19.3906H11.0499V23.1094Z" fill="#C8B100"/>
<path d="M15.3001 19.4437V21.9937C15.3001 23.0031 14.4501 23.8 13.3876 23.8C12.3251 23.8 11.4751 23.0031 11.4751 21.9937V19.4437H15.3001" fill="#ED4C5C"/>
<path d="M13.9189 15.9375C14.0783 16.2563 14.0783 17.0531 13.6001 16.8938C13.7064 16.9469 13.7595 17.3188 13.9189 17.5313C14.1845 17.85 14.5033 17.5844 14.4501 17.2125C14.3439 16.6281 14.397 16.2563 14.5033 15.6719C14.5033 15.725 14.7689 15.725 14.8751 15.6188C14.822 15.7781 14.7689 15.9906 14.8751 15.9906C14.7689 16.15 14.5033 16.4156 14.4501 16.575C14.397 16.9469 14.9814 17.6375 14.3439 17.7969C13.9189 17.9031 14.1845 18.2219 14.3439 18.3813C14.3439 18.3813 14.1314 19.0719 14.2376 19.0188C13.8126 19.1781 13.9189 18.8063 13.9189 18.8063C14.1314 18.1688 13.547 18.1156 13.6001 18.0094C13.0689 17.9563 13.6533 18.4875 13.1751 18.4875C13.0689 18.4875 12.8564 18.5938 12.8564 18.5938C12.272 18.5406 12.5908 18.0094 12.8033 18.0625C12.9626 18.1156 13.122 18.3813 13.122 18.0094C13.122 18.0094 12.8564 17.5844 13.547 17.5844C13.2814 17.5844 13.122 17.3719 13.0158 17.1063C12.9095 17.1594 12.7501 17.425 12.1658 17.4781C12.1658 17.4781 12.0064 16.8938 12.1658 17C12.3783 17.1063 12.4845 17.1063 12.697 16.8938C12.5908 16.7344 11.9533 16.5219 12.0595 16.15C12.0595 16.0438 12.3783 15.8844 12.3783 15.8844C12.3251 16.15 12.4845 16.4156 12.8033 16.4156C13.2283 16.4688 13.0689 16.3094 13.122 16.2031C13.1751 16.0969 13.4939 16.2563 13.3876 15.9906C13.3876 15.9375 13.0158 15.8844 13.122 15.725C13.3345 15.4594 13.6533 15.6719 13.9189 15.9375" fill="#ED4C5C"/>
<path d="M11.475 23.6937L11.3688 23.4281L11.475 23.1094L11.5813 23.4281L11.475 23.6937Z" fill="#ED4C5C"/>
<path d="M8.76565 16.0969V16.3625H8.8719V16.575H8.60628V17.1063H8.76565V18.275H8.4469V18.8594H10.625V18.275H10.3594V17.1063H10.4657V16.575H10.2V16.3625H10.3594V16.0969H9.82815V16.3625H9.9344V16.575H9.66878V15.9375H9.82815V15.6719H9.24377V15.9375H9.40315V16.575H9.13753V16.3625H9.24377V16.0969H8.76565Z" fill="#C8B100"/>
<path d="M14.7688 22.6312V19.975H12.0063V22.6312L13.2813 23.2156H13.4407L14.7688 22.6312ZM13.2813 20.1875V21.0906L12.3782 20.1875H13.2813ZM12.1657 20.2406L13.2282 21.3031L12.1657 22.3656V20.2406ZM12.272 22.5781L13.2813 21.5687V23.0562L12.272 22.5781ZM13.4407 23.0031V21.5156L14.4501 22.525L13.4407 23.0031ZM14.5563 22.3656L13.4938 21.3031L14.5563 20.2406V22.3656ZM13.4407 20.1875H14.3438L13.4407 21.0906V20.1875Z" fill="#C8B100"/>
<path d="M10.2001 19.3906C10.2001 18.5938 10.7313 18.0094 11.4219 18.0094C12.1126 18.0094 12.6438 18.6469 12.6438 19.3906C12.6438 20.1344 12.1126 20.7719 11.4219 20.7719C10.7313 20.7719 10.2001 20.1875 10.2001 19.3906Z" fill="#ED4C5C"/>
<path d="M10.5719 19.3906C10.5719 18.8062 10.9438 18.3812 11.4219 18.3812C11.9 18.3812 12.2719 18.8594 12.2719 19.3906C12.2719 19.975 11.9 20.4 11.4219 20.4C10.9969 20.4531 10.5719 19.975 10.5719 19.3906Z" fill="#005BBF"/>
<path d="M11.05 18.7L10.8375 19.2844L10.9969 19.3375L10.8906 19.55H11.2094L11.1031 19.3375L11.2625 19.2844L11.05 18.7" fill="#C8B100"/>
<path d="M11.8469 18.7L11.6344 19.2844L11.7938 19.3375L11.6875 19.55H12.0063L11.9531 19.3375L12.1125 19.2844L11.8469 18.7" fill="#C8B100"/>
<path d="M11.4751 19.3906L11.2095 19.975L11.3688 20.0281L11.3157 20.2406H11.5813L11.5282 20.0281L11.6876 19.975L11.4751 19.3906Z" fill="#C8B100"/>
</svg>
