<svg width="60" height="60" viewBox="0 0 60 60" fill="none" xmlns="http://www.w3.org/2000/svg">
<g clip-path="url(#clip0)">
<path d="M17.9306 51.6413C15.645 49.8338 13.2038 48.1163 11.5444 45.6844C8.03814 41.4075 5.33251 36.4557 3.48751 31.2413C2.37376 27.8625 1.99313 24.2288 0.556884 20.9681C-0.946866 18.615 0.810009 16.0275 3.39938 15.2756C4.55251 15.0506 6.58314 13.9669 4.13251 14.7488C1.93501 16.35 1.73063 13.2844 3.97688 13.0894C5.51063 12.885 6.07688 11.625 5.55001 10.5019C3.90938 9.42752 9.55313 8.24627 6.71251 6.63377C3.75376 3.44064 10.8525 2.82564 9.10501 6.44814C8.68501 9.24189 14.0663 5.94002 12.8156 9.16314C14.085 10.7063 17.5613 9.51564 17.4731 11.6831C19.3294 11.8106 19.9631 13.3631 21.6919 13.4794C23.4994 14.3006 26.7506 14.9344 27.3656 16.9556C25.5788 18.3713 21.4481 14.0456 21.2531 17.9513C21.7894 23.7225 21.6544 29.67 23.7638 35.1675C24.7688 38.4975 27.1913 41.1244 29.3794 43.7119C31.47 46.26 34.3013 48.0375 37.1925 49.5525C39.7313 50.7432 42.4669 51.5344 45.2288 52.0332C46.3425 51.1744 48.3244 47.9907 50.0719 49.3369C50.1506 50.8407 46.605 52.4907 49.905 52.3257C51.8381 51.7388 53.1863 53.82 54.7875 51.945C56.2519 53.6832 60.9 50.8313 59.8556 54.3957C58.44 55.3032 56.37 54.7575 54.9525 56.0063C52.6181 54.8438 50.7525 57.0507 48.165 56.7769C45.2879 57.271 42.373 57.5126 39.4538 57.4988C34.6781 57.1182 29.7956 56.9625 25.245 55.3013C22.6856 54.5494 20.1863 53.0944 17.9306 51.6394V51.6413ZM21.9638 53.3888C24.4631 54.4632 26.9156 55.605 29.6588 55.9575C34.005 56.5538 38.4975 57.4913 42.8625 56.6419C40.89 55.7438 38.8388 56.9944 36.8756 55.9969C34.5131 56.505 31.9838 55.8694 29.58 55.5582C26.8556 54.3469 23.9063 53.5069 21.3469 51.9244C18.1631 50.7619 22.9969 53.4188 23.8669 53.6438C25.86 54.7763 21.6694 53.0569 21.0844 52.5882C19.4138 51.6507 19.2 51.8457 20.9175 52.7925C21.2588 52.9969 21.6019 53.2125 21.9619 53.3888H21.9638ZM17.2069 50.0194C19.6294 50.9175 17.1975 48.3207 16.0838 48.4669C15.5963 47.6175 14.2088 47.07 15.1856 46.6219C13.4175 47.2275 13.3406 44.2969 12.51 44.7075C10.6444 44.1207 11.7881 42.0413 9.57001 40.7625C9.36564 39.4144 7.36313 38.2425 6.71813 36.2025C6.43501 35.1675 4.46251 32.1694 5.67376 34.9519C6.70876 37.6369 8.53501 39.9319 10.0481 42.2269C11.2294 44.4038 12.6169 46.6894 14.7656 48.0469C15.4875 48.7407 16.1813 49.8057 17.2069 50.0194ZM10.2244 42.3544C10.3031 41.9925 10.6631 43.1457 10.2244 42.3544V42.3544ZM20.1075 51.0938C20.6438 50.8594 19.3369 50.8013 20.1075 51.0938V51.0938ZM21.4256 51.5813C21.2888 50.9175 20.82 51.9432 21.4256 51.5813V51.5813ZM23.0756 52.2657C23.8575 51.5138 21.8644 51.7969 23.0756 52.2657V52.2657ZM25.8994 53.8388C26.3775 53.1357 24.3656 53.5744 25.8994 53.8388V53.8388ZM20.4788 50.0588C21.69 49.2675 18.8963 50.0494 20.4788 50.0588V50.0588ZM21.7088 50.6738C21.6788 50.2538 21.27 50.8594 21.7088 50.6738V50.6738ZM27.8813 54.5307C28.8769 55.155 33.6825 55.8975 30.675 54.7838C30.1763 54.8907 25.0988 53.3475 27.8813 54.5307ZM18.0863 46.8938C17.9888 46.4738 16.5431 46.425 18.0863 46.8938V46.8938ZM20.9569 48.5644C21.7088 48.0469 19.4044 48.1632 20.9569 48.5644V48.5644ZM23.3794 50.0494C24.4538 49.6482 21.6319 49.6388 23.3794 50.0494V50.0494ZM16.9144 45.615C18.0769 46.5132 21.6113 45.7332 18.7013 45.0882C17.3738 44.3757 14.385 43.8975 16.4156 45.5082L16.9144 45.615ZM25.0106 50.5669C25.4981 49.7363 22.98 50.0888 25.0106 50.5669V50.5669ZM22.5488 48.6038C25.4006 49.4138 20.1563 46.8075 21.8456 48.3113L22.2263 48.4782L22.5488 48.6038ZM27.4894 51.4557C30.1838 51.4857 25.0481 51.0844 27.4894 51.4557V51.4557ZM15.8794 44.0532C15.7725 43.5544 15.2156 44.1019 15.8794 44.0532V44.0532ZM32.0513 54.0132C32.1188 53.1057 31.1719 54.6975 32.0513 54.0132V54.0132ZM20.4788 46.875C20.3119 46.3969 19.6388 46.8563 20.4788 46.875V46.875ZM16.1325 43.74C17.6756 43.6519 14.0138 43.0557 16.1325 43.74V43.74ZM10.9763 40.41C10.7906 39.6675 9.29626 39.0825 10.9763 40.41V40.41ZM24.5025 49.0032C24.2194 48.6713 24.3656 49.0707 24.5025 49.0032V49.0032ZM32.91 54.1594C32.8913 53.6719 32.46 54.345 32.91 54.1594V54.1594ZM23.76 48.2325C23.9063 47.5875 22.4325 48.0375 23.76 48.2325V48.2325ZM17.49 44.2482C18.6319 44.13 15.645 43.4775 17.49 44.2482V44.2482ZM28.095 50.8407C29.8819 50.1282 26.3363 50.4882 28.095 50.8407V50.8407ZM22.5788 47.1C24.6488 47.3644 20.1169 45.6938 22.1194 46.9538L22.5788 47.1ZM29.7656 51.5232C31.6988 50.3607 31.065 54.2288 33.0469 51.8457C35.0006 50.4207 31.3575 53.6138 33.7688 52.0988C35.5069 50.9363 38.085 52.6557 39.7069 53.2125C40.8788 53.1544 42.0206 54.2288 43.2131 53.5744C45.5269 52.95 38.7019 52.6557 40.4888 51.5532C38.3794 52.1682 36.8175 50.82 35.7825 49.4625C33.4088 48.915 30.675 47.7038 29.4938 45.6057C29.0063 44.8238 30.1875 45.7238 29.0738 44.4338C27.6488 43.1644 26.9344 41.7188 25.9781 40.1757C24.8363 39.57 24.6994 37.7738 24.5813 40.1175C24.5906 38.6325 23.1938 37.6369 22.8619 38.0569C22.8525 36.6319 24.3469 37.3444 23.3006 36.2888C23.0756 34.8038 22.3331 33.2607 22.11 31.5919C21.7688 30.7913 22.0613 29.0719 20.9288 30.8888C20.5181 32.8125 20.7919 28.5263 21.4369 29.9419C22.2769 28.4963 21.135 28.6631 21.0844 28.8675C21.6319 27.6469 21.4369 25.9181 20.9381 26.5725C21.2306 25.2825 21.4069 21.8175 20.4994 22.4325C21.0469 21.0844 21.5344 16.2506 19.1719 18.0956C18.2044 18.105 16.545 18.4481 15.7631 18.8381C18.225 20.1956 15.51 19.3256 14.5125 19.1119C14.385 20.3625 13.3894 19.8244 12.15 19.8338C14.1319 20.0775 11.1825 21.855 10.0406 21.1725C8.56689 21.8756 11.3194 23.6344 10.0706 24.18C10.2263 25.0013 7.81501 23.8875 8.00064 25.7813C6.56439 25.1756 7.80564 28.0369 8.51814 27.0713C10.9594 27.7256 10.2375 29.2294 10.2956 30.6656C9.90564 31.4963 8.34189 28.7025 9.95439 28.83C8.68501 26.7694 8.54813 28.0875 7.48313 29.0456C7.23938 29.1131 10.1888 30.4125 8.34189 31.0575C9.96376 31.3013 10.0125 32.7281 10.335 33.6263C11.3119 34.6519 11.1169 32.5031 12.2888 33.7331C11.5463 32.64 8.37189 30.6563 10.9219 31.2919C10.9125 30.1988 10.4625 29.31 11.2444 29.3381C12.0263 27.9319 10.4344 32.805 12.1819 31.0181C12.6694 30.8025 12.7875 29.6119 13.6669 31.125C14.9269 32.3757 14.1169 33.2738 12.3394 32.13C12.6525 33.2138 14.7225 33.6038 14.3325 35.295C14.7431 36.7894 15.3188 36.2325 15.8269 36.1538C16.2169 37.5994 16.4419 36.5344 16.4625 35.8407C18.27 36.2306 17.8388 37.2957 18.405 38.0475C19.6444 38.6044 16.6275 34.2394 18.7669 36.7294C21.0038 38.76 19.6069 39.6 17.5856 39.2775C18.8644 39.18 19.275 41.0063 20.8669 40.9369C22.3219 41.6307 23.3081 44.2857 20.7994 43.1832C19.9294 42.4013 16.8544 41.4244 19.3744 42.9188C21.6994 43.9932 23.535 44.6382 25.7813 45.9844C27.3731 47.1263 28.0763 48.4463 28.6819 48.6994C27.3338 49.3444 24.6188 48.1819 26.6306 47.8294C25.38 47.6044 23.9644 46.9707 25.1663 48.5325C26.1919 49.3913 28.7888 49.2938 29.2575 49.3913C28.8563 50.2613 28.1831 50.3288 29.2763 50.3963C28.0556 51.0507 29.6663 51.1482 29.775 51.5194L29.7656 51.5232ZM27.285 44.5013C26.5425 43.7194 26.3475 42.2738 27.1481 43.5338C27.5588 43.7007 28.4663 45.9075 27.285 44.5013ZM35.3813 49.6388C35.8406 49.62 35.3906 49.9913 35.3813 49.6388V49.6388ZM26.1131 42.5982C26.0831 41.4356 26.3775 43.5057 26.1131 42.5982V42.5982ZM25.3031 41.5238C24.375 39.7275 26.4844 42.0319 25.3031 41.5238V41.5238ZM15.5569 34.785C16.1044 34.6388 15.8213 35.7225 15.5569 34.785V34.785ZM23.3213 38.9944C23.6531 37.7344 23.7113 40.0594 23.3213 38.9944V38.9944ZM17.8313 35.1863C17.4506 34.4925 18.6413 35.8407 17.8313 35.1863V35.1863ZM22.5394 36.69C21.66 34.7175 23.1638 35.6157 22.7344 37.0219L22.5394 36.69ZM14.4244 31.2788C14.0344 30.6338 13.38 28.7306 13.5938 28.1531C13.7794 29.0906 15.5963 32.2163 14.4825 29.4431C13.2525 27.1181 15.9563 30.195 16.2413 30.7819C16.3688 31.3575 15.48 30.6263 16.0744 31.9725C14.9813 30.4294 15.4294 32.8219 14.4244 31.2788ZM11.9138 29.55C12.0206 28.0463 12.4894 30.585 11.9138 29.55V29.55ZM13.0463 29.9419C13.5825 28.8 13.9538 31.5244 13.0463 29.9419V29.9419ZM10.3313 27.8419C9.39376 26.9138 8.72064 26.055 10.3706 27.2663C11.0156 27.285 8.96439 25.3238 10.5263 26.6419C12.1763 26.9438 11.3363 29.3475 10.3313 27.8438V27.8419ZM11.7581 27.8025C12.3056 27.2663 12.0413 28.3294 11.7581 27.8025V27.8025ZM12.6375 28.0856C11.8163 26.5425 13.6331 28.7306 12.6375 28.0856V28.0856ZM10.8881 26.4169C8.17314 24.0056 14.3063 27.6863 11.3269 26.8669L10.8881 26.4169ZM18.6713 30.9375C17.49 30.2344 18.3581 25.9763 18.7594 28.8863C19.9013 28.515 18.6919 30.39 19.5413 30.3713C19.4138 31.5525 19.0331 31.9819 18.6713 30.9375ZM21.5438 32.6363C21.6619 31.3575 21.7875 33.5156 21.5438 32.6363V32.6363ZM21.045 32.1394C21.1725 31.5919 21.0544 32.7844 21.045 32.1394V32.1394ZM11.4263 25.6256C9.67876 23.2144 16.4944 28.0575 12.54 26.2313C12.1294 26.1244 11.6325 26.085 11.4263 25.6256ZM16.9631 28.5638C16.7963 26.5331 17.3344 28.8956 16.9631 28.5638V28.5638ZM21.1725 31.26C21.495 30.1069 21.1913 32.0213 21.1725 31.26V31.26ZM11.6888 24.7069C12.7238 24.4819 15.9863 26.5238 12.9881 25.2938C12.6563 24.9225 11.9531 25.0894 11.6888 24.7069ZM20.5856 29.1413C20.7038 27.0713 21.21 27.9019 20.595 29.4338L20.5856 29.1413ZM12.4613 23.985C12.8813 23.37 11.3381 21.1819 12.6863 23.2031C13.2619 23.6625 14.3663 23.9738 13.3894 24.1706C14.9231 25.5188 13.0181 24.5325 12.4613 23.985ZM20.1469 28.4963C20.4394 26.1338 20.4113 29.8725 20.1469 28.4963V28.4963ZM11.5819 21.8063C11.9044 21.6694 11.7488 22.2356 11.5819 21.8063V21.8063ZM13.5844 22.9988C14.1019 21.915 14.5313 24.21 13.5844 22.9988V22.9988ZM19.2375 26.1525C19.2375 25.7325 19.3444 26.7488 19.2375 26.1525V26.1525ZM18.9169 25.4194C18.135 23.4863 19.65 26.445 18.9169 25.4194V25.4194ZM18.4275 24.15C18.3 23.3494 18.8869 25.155 18.4275 24.15V24.15ZM19.2188 22.8713C18.6825 21.9244 19.9031 18.6919 20.0288 20.6944C19.4625 22.2563 19.8731 23.1356 20.2631 21.0356C20.9963 19.3856 20.1075 24.2981 19.2188 22.8713ZM20.0194 18.0656C20.2538 17.7731 20.0775 18.4069 20.0194 18.0656V18.0656ZM18.6825 44.5988C18.36 44.3157 18.7219 44.775 18.6825 44.5988V44.5988ZM21.4556 45.9957C22.9894 46.3969 22.9894 45.7613 21.5925 45.5757C20.8406 44.8725 18.4781 44.13 20.5969 45.4875C20.7338 45.84 21.1838 45.8288 21.4463 45.9957H21.4556ZM15.9769 42.3638C16.8263 42.9994 19.17 44.16 17.1788 42.5982C17.8519 41.8275 15.9 41.4075 16.5431 40.89C14.9025 39.8738 15.2438 39.9713 16.4063 40.0013C14.4131 39.1125 16.6894 39.18 16.5825 38.7225C15.8119 38.5763 12.7838 37.3744 14.5706 38.82C12.7538 37.9013 14.1319 39.1725 13.5844 39.0357C11.7281 38.5275 15.2344 40.4513 13.2919 39.9732C14.3569 40.8132 16.1625 42.1313 13.7419 40.8619C13.4194 41.3213 15.4706 42.015 15.9788 42.3657L15.9769 42.3638ZM18.8775 44.0325C22.4025 45.165 17.1488 42.6357 18.8775 44.0325V44.0325ZM33.72 53.0269C33.7688 52.3238 33.2419 53.6232 33.72 53.0269V53.0269ZM35.2538 53.6719C36.0638 52.8807 35.2838 54.9225 36.6019 53.4769C36.6113 52.4419 36.5625 51.8269 35.0888 53.0869C34.6781 53.3119 34.5019 54.2682 35.2556 53.6738L35.2538 53.6719ZM11.0156 38.4469C10.7719 37.47 9.26814 37.47 11.0156 38.4469V38.4469ZM12.6469 39.5213C12.0413 38.5163 10.4888 38.6138 12.6469 39.5213V39.5213ZM21.9244 45.1182C22.8319 45.9188 26.085 45.705 23.0288 45.2157C22.5694 44.5425 20.1488 44.7075 21.9244 45.1182ZM34.6688 52.9875C36.0656 51.8157 33.3206 53.505 34.6688 52.9875V52.9875ZM37.5675 54.9713C37.5769 54.6 36.9713 55.1382 37.5675 54.9713V54.9713ZM37.5675 54.4538C39.1106 52.8132 36.0731 54.5513 37.5675 54.4538V54.4538ZM7.01251 35.0982C5.69438 33.2231 6.19126 32.3738 4.92188 30.8494C4.68751 29.6681 2.75438 27.0113 3.92626 29.8331C5.00063 31.4738 5.32313 34.0219 7.01251 35.0963V35.0982ZM37.0894 53.925C39.9319 52.0988 35.9269 53.1338 37.0894 53.925V53.925ZM39.2588 54.7763C40.6838 53.565 38.3606 54.5232 39.2588 54.7763V54.7763ZM10.5375 36.3769C10.9481 35.7713 9.49314 36.2981 10.5375 36.3769V36.3769ZM38.7994 54.1988C40.1756 53.31 38.4863 53.4469 38.5556 54.2775L38.7994 54.1988ZM20.1263 42.4219C20.0775 41.8257 19.3931 42.4707 20.1263 42.4219V42.4219ZM21.2794 43.0857C20.9081 42.3432 20.7131 43.2038 21.2794 43.0857V43.0857ZM41.0156 54.8044C42.7744 53.5257 39.9413 54.5513 40.6444 55.0388L41.0156 54.8044ZM40.3425 54.4725C41.7788 53.2707 38.8181 55.0088 40.3425 54.4725V54.4725ZM43.7888 56.7675C44.7563 56.1225 42.6169 56.5632 43.7888 56.7675V56.7675ZM11.4263 35.9382C12.7163 36.2306 16.5919 39.1219 14.3063 36.1425C13.1344 35.79 13.8375 32.9288 12.6356 33.4369C13.4363 34.7757 13.2994 35.3513 11.6194 34.5019C9.50064 33.4763 10.4288 35.0194 10.8375 35.4394C10.2806 35.5669 11.5894 35.9269 11.4244 35.9382H11.4263ZM5.53688 31.29C5.76188 30.3338 3.39751 26.0269 4.41376 29.1319C4.78501 29.7769 4.74563 31.0163 5.53688 31.29ZM16.3388 37.9594C15.675 37.4025 16.3088 37.8713 16.3388 37.9594V37.9594ZM17.9794 38.34C17.9794 37.3238 16.1719 37.9294 17.9794 38.34V38.34ZM32.1881 47.295C31.9144 46.6013 31.1138 47.2763 32.1881 47.295V47.295ZM32.8706 47.7938C32.7731 47.4038 32.4806 47.8613 32.8706 47.7938V47.7938ZM38.505 51.3375C39.0413 50.9363 37.8319 51.2888 38.505 51.3375V51.3375ZM8.47689 32.0419C10.0294 31.4363 6.81751 31.6125 8.47689 32.0419V32.0419ZM30.9375 46.1907C30.9188 45.1857 29.9513 46.4438 30.9375 46.1907V46.1907ZM7.86189 30.615C8.85751 30.2738 6.94314 30.39 7.86189 30.615V30.615ZM10.7513 32.0119C10.7325 31.68 10.4494 32.1394 10.7513 32.0119V32.0119ZM45.9769 53.6138C47.2556 53.3607 50.1769 54.2682 50.6456 53.2725C49.0931 53.2425 45.2644 52.1794 45.0881 53.5257L45.4294 53.5838L45.9769 53.6138ZM11.67 32.2463C11.6888 31.23 10.8788 32.2069 11.67 32.2463V32.2463ZM4.07251 26.9719C3.73126 25.0388 2.76376 26.6794 4.07251 26.9719V26.9719ZM5.88938 27.4313C5.90813 26.8069 4.23001 26.865 5.88938 27.4313V27.4313ZM6.92439 27.9394C6.62251 27.6956 6.69001 28.2413 6.92439 27.9394V27.9394ZM13.4269 32.1094C13.74 31.8356 12.705 31.905 13.4269 32.1094V32.1094ZM6.23063 26.7975C6.05438 25.3331 4.13063 26.5725 6.23063 26.7975V26.7975ZM2.52001 24.3844C2.47126 23.7113 2.15813 24.6375 2.52001 24.3844V24.3844ZM3.06563 23.9644C2.97751 23.1638 2.59688 24.0619 3.06563 23.9644V23.9644ZM6.12376 25.7906C7.41376 25.2825 3.77063 24.735 5.85938 25.6931L6.12376 25.7906ZM46.9538 51.0057C47.7844 50.2538 45.9094 50.7713 46.9538 51.0057V51.0057ZM51.8944 53.565C52.2169 52.5882 51.0544 53.6925 51.8944 53.565V53.565ZM6.43501 24.1894C6.57188 23.2425 5.40938 24.375 6.43501 24.1894V24.1894ZM2.09063 21.2794C1.85626 19.9406 1.89563 17.5969 4.12126 18.3881C1.14188 18.9844 6.18188 22.0894 5.54626 19.6388C6.79689 19.6969 7.99689 18.8963 7.33314 20.1169C9.80439 19.8431 11.5125 17.7056 13.8956 17.9981C15.7519 17.7544 17.7825 17.5688 19.785 16.8263C21.4256 16.6988 23.0081 14.9325 22.11 13.8863C19.8638 13.6913 17.52 13.9744 15.0394 14.4619C12.2944 15.0375 9.80439 16.1213 7.03126 16.59C4.32563 16.9519 7.56751 17.5856 6.79689 17.7319C5.39063 18.2194 8.47688 18.5531 6.61126 19.0594C5.46938 18.8438 4.26751 18.4444 4.75501 17.2331C2.16751 17.565 -0.108741 18.6488 1.94251 21.2756L2.09063 21.2794ZM8.33064 18.105C8.93626 15.8681 11.5819 19.9406 9.32626 18.3975C9.05251 18.2025 8.61376 18.0356 8.33064 18.105ZM8.44689 17.0213C9.31689 16.3763 8.90626 17.3831 8.44689 17.0213V17.0213ZM9.56064 17.0419C9.63939 16.0163 12.0994 17.5894 9.96189 17.4131L9.56064 17.0419ZM11.0738 16.425C11.6306 15.78 11.2406 17.0119 11.0738 16.425V16.425ZM11.4656 16.1719C12.3938 15.0581 16.71 15.4594 13.545 16.065C12.705 15.4294 12.0506 16.4363 11.4656 16.1719ZM17.1 15.3019C16.9538 12.2644 19.8938 16.3856 17.1 15.3019V15.3019ZM18.6919 15.2925C19.2788 13.7588 20.9569 14.6775 18.9656 14.9794C19.005 15.1463 18.9075 15.7706 18.6919 15.2925ZM5.80126 23.4075C7.54876 22.3331 3.95626 22.4794 5.80126 23.4075V23.4075ZM7.08938 23.7694C7.70438 23.115 5.76188 23.4956 7.08938 23.7694V23.7694ZM3.29063 21.0638C4.28626 20.3025 2.11876 20.7713 3.29063 21.0638V21.0638ZM54.8044 53.2913C54.8344 52.4025 54.0431 53.6925 54.8044 53.2913V53.2913ZM49.5713 49.7175C49.7175 48.6919 48.8981 49.8057 49.5713 49.7175V49.7175ZM56.2406 53.6325C57.6375 53.6325 60.4594 53.2032 57.4313 53.2032C56.9531 53.2819 54.6581 53.2613 56.2406 53.6325ZM8.22189 23.1356C9.35439 23.0569 9.99001 21.8963 8.00626 21.9638C4.92938 21.6413 10.7119 23.0081 7.61626 22.6181C7.19626 22.8919 8.20314 23.2144 8.22189 23.1356ZM9.21939 23.6419C9.10126 22.9088 8.86689 24.0225 9.21939 23.6419V23.6419ZM10.3913 20.4975C10.89 19.8919 9.71814 20.3306 10.3913 20.4975V20.4975ZM6.64126 14.2294C8.66251 13.545 11.4169 12.7744 12.3638 14.5613C11.3963 13.3988 11.9738 12.2569 12.8906 13.9556C14.1806 15.6844 14.8238 13.1738 13.9838 12.5981C14.94 13.7888 16.0256 14.3456 14.6288 12.6656C16.1531 10.8394 11.5725 12.9094 10.5263 12.8906C10.0275 13.1156 5.35126 14.0813 6.64876 14.2294H6.64126ZM7.82251 11.9719C8.97564 11.1019 11.7975 12.48 9.98064 11.1019C9.81376 10.9556 6.01501 12.1463 7.82251 11.9719ZM12.0113 12.1388C13.3594 12.1781 11.4356 10.3425 13.0369 11.1713C12.7725 10.3125 11.1713 10.1456 10.38 9.80439C9.94126 10.5956 11.2875 12.1481 12.0113 12.1388ZM8.56501 8.34002C9.02439 7.71564 7.74376 8.66252 8.56501 8.34002V8.34002ZM10.2731 8.75064C12.4313 8.46752 9.71626 7.82252 9.83439 8.73189L10.2731 8.75064ZM7.08001 6.24939C5.55563 4.25627 9.94126 6.59064 8.39814 4.50189C7.08939 3.46689 5.83876 5.67377 7.08001 6.24939ZM26.64 16.7869C27.3431 15.5475 23.7488 15.1163 26.1713 16.3481C26.3963 16.4269 26.3381 16.875 26.64 16.7869Z" fill="black"/>
</g>
<defs>
<clipPath id="clip0">
<rect width="60" height="60" fill="white"/>
</clipPath>
</defs>
</svg>
