<svg width="60" height="60" viewBox="0 0 60 60" fill="none" xmlns="http://www.w3.org/2000/svg">
<path d="M30 0C13.4316 0 0 13.4313 0 30C0 46.5687 13.4316 60 30 60C46.5687 60 60 46.5687 60 30C60 13.4313 46.5687 0 30 0ZM6.44625 30.3127L29.6871 53.5538C16.9254 53.3873 6.61242 43.0748 6.44625 30.3127V30.3127ZM35.2725 52.965L7.035 24.7275C9.42984 14.2556 18.8023 6.44227 30 6.44227C37.8274 6.44227 44.7621 10.2609 49.046 16.136L45.7842 19.0139C42.3094 14.0306 36.5358 10.7693 30 10.7693C21.6785 10.7693 14.5922 16.0549 11.9135 23.452L36.5484 48.0865C42.5309 45.9202 47.1319 40.8701 48.6727 34.6153H38.4619V30H53.558C53.558 41.198 45.7448 50.5704 35.2727 52.9648L35.2725 52.965Z" fill="#744C9E"/>
</svg>
