<svg width="24" height="24" viewBox="0 0 24 24" fill="none" xmlns="http://www.w3.org/2000/svg">
<path d="M6.995 12C6.995 14.761 9.241 17.007 12.002 17.007C14.763 17.007 17.009 14.761 17.009 12C17.009 9.239 14.763 6.993 12.002 6.993C9.241 6.993 6.995 9.239 6.995 12ZM11 19H13V22H11V19ZM11 2H13V5H11V2ZM2 11H5V13H2V11ZM19 11H22V13H19V11Z" />
<path d="M5.63702 19.778L4.22302 18.364L6.34402 16.243L7.75802 17.657L5.63702 19.778Z" />
<path d="M16.2419 6.344L18.3639 4.222L19.7779 5.636L17.6559 7.758L16.2419 6.344Z"/>
<path d="M6.34402 7.75901L4.22302 5.63701L5.63802 4.22301L7.75802 6.34501L6.34402 7.75901Z" />
<path d="M19.7779 18.364L18.3639 19.778L16.2419 17.656L17.6559 16.242L19.7779 18.364Z" />
</svg>
