<svg width="405" height="188" viewBox="0 0 405 188" fill="none" xmlns="http://www.w3.org/2000/svg">
<path d="M28.048 70.152C22.736 70.152 17.584 69.448 12.592 68.04C7.664 66.568 3.696 64.68 0.688 62.376L5.968 50.664C8.848 52.776 12.272 54.472 16.24 55.752C20.208 57.032 24.176 57.672 28.144 57.672C32.56 57.672 35.824 57.032 37.936 55.752C40.048 54.408 41.104 52.648 41.104 50.472C41.104 48.872 40.464 47.56 39.184 46.536C37.968 45.448 36.368 44.584 34.384 43.944C32.464 43.304 29.84 42.6 26.512 41.832C21.392 40.616 17.2 39.4 13.936 38.184C10.672 36.968 7.856 35.016 5.488 32.328C3.184 29.64 2.032 26.056 2.032 21.576C2.032 17.672 3.088 14.152 5.2 11.016C7.312 7.816 10.48 5.288 14.704 3.432C18.992 1.576 24.208 0.647999 30.352 0.647999C34.64 0.647999 38.832 1.16 42.928 2.184C47.024 3.208 50.608 4.68 53.68 6.6L48.88 18.408C42.672 14.888 36.464 13.128 30.256 13.128C25.904 13.128 22.672 13.832 20.56 15.24C18.512 16.648 17.488 18.504 17.488 20.808C17.488 23.112 18.672 24.84 21.04 25.992C23.472 27.08 27.152 28.168 32.08 29.256C37.2 30.472 41.392 31.688 44.656 32.904C47.92 34.12 50.704 36.04 53.008 38.664C55.376 41.288 56.56 44.84 56.56 49.32C56.56 53.16 55.472 56.68 53.296 59.88C51.184 63.016 47.984 65.512 43.696 67.368C39.408 69.224 34.192 70.152 28.048 70.152ZM119.219 56.52V69H67.1868V1.8H117.971V14.28H82.6428V28.872H113.843V40.968H82.6428V56.52H119.219ZM174.409 69L161.449 50.28H160.681H147.145V69H131.593V1.8H160.681C166.633 1.8 171.785 2.792 176.137 4.776C180.553 6.76 183.945 9.576 186.313 13.224C188.681 16.872 189.865 21.192 189.865 26.184C189.865 31.176 188.649 35.496 186.217 39.144C183.849 42.728 180.457 45.48 176.041 47.4L191.113 69H174.409ZM174.121 26.184C174.121 22.408 172.905 19.528 170.473 17.544C168.041 15.496 164.489 14.472 159.817 14.472H147.145V37.896H159.817C164.489 37.896 168.041 36.872 170.473 34.824C172.905 32.776 174.121 29.896 174.121 26.184ZM247.595 34.344H261.803V61.608C258.155 64.36 253.931 66.472 249.131 67.944C244.331 69.416 239.499 70.152 234.635 70.152C227.659 70.152 221.387 68.68 215.819 65.736C210.251 62.728 205.867 58.6 202.667 53.352C199.531 48.04 197.963 42.056 197.963 35.4C197.963 28.744 199.531 22.792 202.667 17.544C205.867 12.232 210.283 8.104 215.915 5.16C221.547 2.152 227.883 0.647999 234.923 0.647999C240.811 0.647999 246.155 1.64 250.955 3.62399C255.755 5.608 259.787 8.488 263.051 12.264L253.067 21.48C248.267 16.424 242.475 13.896 235.691 13.896C231.403 13.896 227.595 14.792 224.267 16.584C220.939 18.376 218.347 20.904 216.491 24.168C214.635 27.432 213.707 31.176 213.707 35.4C213.707 39.56 214.635 43.272 216.491 46.536C218.347 49.8 220.907 52.36 224.171 54.216C227.499 56.008 231.275 56.904 235.499 56.904C239.979 56.904 244.011 55.944 247.595 54.024V34.344ZM276.249 1.8H291.801V69H276.249V1.8ZM340.293 70.152C333.317 70.152 327.013 68.648 321.381 65.64C315.813 62.632 311.429 58.504 308.229 53.256C305.093 47.944 303.525 41.992 303.525 35.4C303.525 28.808 305.093 22.888 308.229 17.64C311.429 12.328 315.813 8.168 321.381 5.16C327.013 2.152 333.317 0.647999 340.293 0.647999C347.269 0.647999 353.541 2.152 359.109 5.16C364.677 8.168 369.061 12.328 372.261 17.64C375.461 22.888 377.061 28.808 377.061 35.4C377.061 41.992 375.461 47.944 372.261 53.256C369.061 58.504 364.677 62.632 359.109 65.64C353.541 68.648 347.269 70.152 340.293 70.152ZM340.293 56.904C344.261 56.904 347.845 56.008 351.045 54.216C354.245 52.36 356.741 49.8 358.533 46.536C360.389 43.272 361.317 39.56 361.317 35.4C361.317 31.24 360.389 27.528 358.533 24.264C356.741 21 354.245 18.472 351.045 16.68C347.845 14.824 344.261 13.896 340.293 13.896C336.325 13.896 332.741 14.824 329.541 16.68C326.341 18.472 323.813 21 321.957 24.264C320.165 27.528 319.269 31.24 319.269 35.4C319.269 39.56 320.165 43.272 321.957 46.536C323.813 49.8 326.341 52.36 329.541 54.216C332.741 56.008 336.325 56.904 340.293 56.904ZM28.048 187.152C22.736 187.152 17.584 186.448 12.592 185.04C7.664 183.568 3.696 181.68 0.688 179.376L5.968 167.664C8.848 169.776 12.272 171.472 16.24 172.752C20.208 174.032 24.176 174.672 28.144 174.672C32.56 174.672 35.824 174.032 37.936 172.752C40.048 171.408 41.104 169.648 41.104 167.472C41.104 165.872 40.464 164.56 39.184 163.536C37.968 162.448 36.368 161.584 34.384 160.944C32.464 160.304 29.84 159.6 26.512 158.832C21.392 157.616 17.2 156.4 13.936 155.184C10.672 153.968 7.856 152.016 5.488 149.328C3.184 146.64 2.032 143.056 2.032 138.576C2.032 134.672 3.088 131.152 5.2 128.016C7.312 124.816 10.48 122.288 14.704 120.432C18.992 118.576 24.208 117.648 30.352 117.648C34.64 117.648 38.832 118.16 42.928 119.184C47.024 120.208 50.608 121.68 53.68 123.6L48.88 135.408C42.672 131.888 36.464 130.128 30.256 130.128C25.904 130.128 22.672 130.832 20.56 132.24C18.512 133.648 17.488 135.504 17.488 137.808C17.488 140.112 18.672 141.84 21.04 142.992C23.472 144.08 27.152 145.168 32.08 146.256C37.2 147.472 41.392 148.688 44.656 149.904C47.92 151.12 50.704 153.04 53.008 155.664C55.376 158.288 56.56 161.84 56.56 166.32C56.56 170.16 55.472 173.68 53.296 176.88C51.184 180.016 47.984 182.512 43.696 184.368C39.408 186.224 34.192 187.152 28.048 187.152ZM97.0428 187.152C87.4428 187.152 79.9548 184.496 74.5788 179.184C69.2668 173.872 66.6108 166.288 66.6108 156.432V118.8H82.1628V155.856C82.1628 167.888 87.1548 173.904 97.1388 173.904C102.003 173.904 105.715 172.464 108.275 169.584C110.835 166.64 112.115 162.064 112.115 155.856V118.8H127.475V156.432C127.475 166.288 124.787 173.872 119.411 179.184C114.099 184.496 106.643 187.152 97.0428 187.152ZM185.693 171.6H154.493L148.541 186H132.605L162.557 118.8H177.917L207.965 186H191.645L185.693 171.6ZM180.797 159.792L170.141 134.064L159.485 159.792H180.797ZM174.461 99.504H190.589L173.213 113.328H161.501L174.461 99.504ZM257.753 186L244.793 167.28H244.025H230.489V186H214.937V118.8H244.025C249.977 118.8 255.129 119.792 259.481 121.776C263.897 123.76 267.289 126.576 269.657 130.224C272.025 133.872 273.209 138.192 273.209 143.184C273.209 148.176 271.993 152.496 269.561 156.144C267.193 159.728 263.801 162.48 259.385 164.4L274.457 186H257.753ZM257.465 143.184C257.465 139.408 256.249 136.528 253.817 134.544C251.385 132.496 247.833 131.472 243.161 131.472H230.489V154.896H243.161C247.833 154.896 251.385 153.872 253.817 151.824C256.249 149.776 257.465 146.896 257.465 143.184ZM337.562 173.52V186H285.531V118.8H336.315V131.28H300.987V145.872H332.187V157.968H300.987V173.52H337.562ZM404.369 173.328V186H345.617V175.92L382.481 131.472H346.385V118.8H402.929V128.88L366.161 173.328H404.369Z" fill="#1A202C"/>
</svg>
