<svg width="60" height="60" viewBox="0 0 60 60" fill="none" xmlns="http://www.w3.org/2000/svg">
<path d="M29.9999 56.2501C29.2917 56.2504 28.5959 56.0641 27.9824 55.7101L21.5624 51.9095C20.6043 51.3732 21.0712 51.1839 21.3881 51.0733C22.4071 50.7584 23.3828 50.3175 24.2924 49.7607C24.3686 49.7255 24.4525 49.7103 24.5361 49.7165C24.6198 49.7228 24.7005 49.7503 24.7706 49.7964L29.7037 52.727C29.7955 52.7756 29.8979 52.801 30.0018 52.801C30.1057 52.801 30.2081 52.7756 30.2999 52.727L49.5374 41.6232C49.6275 41.5693 49.7019 41.4929 49.7535 41.4015C49.8051 41.3102 49.8321 41.2069 49.8318 41.102V18.8907C49.8319 18.7841 49.8045 18.6793 49.7523 18.5864C49.7 18.4934 49.6248 18.4155 49.5337 18.3601L30.2962 7.26575C30.2055 7.21466 30.1031 7.18782 29.999 7.18782C29.8949 7.18782 29.7925 7.21466 29.7018 7.26575L10.4756 18.3639C10.3839 18.4181 10.3077 18.4951 10.2545 18.5874C10.2013 18.6797 10.1728 18.7842 10.1718 18.8907V41.0926C10.1721 41.1973 10.2002 41.3001 10.2532 41.3904C10.3063 41.4806 10.3823 41.5552 10.4737 41.6064L15.7499 44.6514C18.6093 46.0801 20.3606 44.3964 20.3606 42.7051V20.7845C20.3606 20.6353 20.4198 20.4922 20.5253 20.3868C20.6308 20.2813 20.7739 20.222 20.9231 20.222H23.3606C23.5097 20.222 23.6528 20.2813 23.7583 20.3868C23.8638 20.4922 23.9231 20.6353 23.9231 20.7845V42.707C23.9231 46.5226 21.8456 48.707 18.2268 48.707C16.6656 48.7342 15.129 48.3167 13.7962 47.5032L8.73931 44.6026C8.12542 44.2451 7.61603 43.7329 7.26202 43.1169C6.908 42.501 6.72173 41.803 6.72182 41.0926V18.8907C6.71999 18.1792 6.90547 17.4798 7.25961 16.8627C7.61375 16.2456 8.12408 15.7325 8.73931 15.3751L27.9787 4.26763C28.5984 3.92856 29.2935 3.75085 29.9999 3.75085C30.7064 3.75085 31.4014 3.92856 32.0212 4.26763L51.2587 15.3751C51.8725 15.7319 52.382 16.2435 52.7364 16.8587C53.0907 17.474 53.2775 18.1714 53.2781 18.8814V41.0926C53.277 41.803 53.0901 42.5008 52.7358 43.1165C52.3815 43.7323 51.8723 44.2446 51.2587 44.6026L32.0212 55.7101C31.4066 56.0647 30.7094 56.251 29.9999 56.2501V56.2501Z" fill="#83CD29"/>
<path d="M26.3516 33.6621C26.3516 33.5129 26.4108 33.3698 26.5163 33.2643C26.6218 33.1589 26.7649 33.0996 26.9141 33.0996H29.4022C29.5351 33.1 29.6636 33.1475 29.7649 33.2337C29.8661 33.3198 29.9336 33.4391 29.9553 33.5702C30.3303 36.1033 31.4553 37.3802 36.5422 37.3802C40.5941 37.3802 42.3209 36.4633 42.3209 34.3127C42.3209 33.0733 41.8316 32.1527 35.5334 31.5358C30.2684 31.0146 27.0134 29.8483 27.0134 25.6408C27.0134 21.7596 30.2853 19.444 35.7697 19.444C41.9328 19.444 44.9834 21.5833 45.3697 26.1733C45.3756 26.25 45.3657 26.327 45.3407 26.3997C45.3157 26.4723 45.276 26.5391 45.2242 26.5959C45.1724 26.6526 45.1094 26.6981 45.0393 26.7296C44.9692 26.7611 44.8934 26.7779 44.8166 26.779H42.3116C42.1859 26.7772 42.0644 26.7334 41.9666 26.6546C41.8687 26.5757 41.8 26.4664 41.7716 26.344C41.1734 23.6796 39.7091 22.8283 35.7716 22.8283C31.3466 22.8283 30.8328 24.3696 30.8328 25.5246C30.8328 26.9233 31.4403 27.3321 37.4141 28.1215C43.3259 28.9033 46.1347 30.0096 46.1347 34.1646C46.1347 38.3571 42.6397 40.7571 36.5441 40.7571C28.1159 40.7683 26.3516 36.904 26.3516 33.6621V33.6621Z" fill="#83CD29"/>
</svg>
