<svg width="60" height="60" viewBox="0 0 60 60" fill="none" xmlns="http://www.w3.org/2000/svg">
<g clip-path="url(#clip0)">
<path d="M29.8441 0.0392006C27.3339 0.0460906 24.8342 0.364141 22.4023 0.986076C10.7023 3.89608 1.41539 14.4917 0.224764 26.5104C-1.25086 37.8786 4.50164 49.7248 14.3341 55.5936C23.9941 61.6386 37.0685 61.3967 46.5223 55.0386C55.0198 49.5205 60.3016 39.4705 59.9904 29.3229C59.846 19.2861 54.2098 9.52858 45.5848 4.37233C40.8879 1.4717 35.3623 0.0167006 29.8441 0.0373256V0.0392006ZM29.6773 4.2767C42.0391 4.25608 54.1498 13.8167 55.3891 26.5911C57.7535 40.7417 46.0048 55.1267 31.6685 55.5467C18.0354 56.9042 4.85039 45.3411 4.46039 31.6498C3.44601 20.5667 10.7604 9.56045 21.2079 5.8967C23.9016 4.82377 26.7759 4.27703 29.6754 4.28608L29.6773 4.2767ZM42.4123 12.3448C35.6923 17.5573 29.2573 23.1148 22.6854 28.4867C25.6929 28.5242 28.721 28.5242 31.7379 28.5036C35.2629 23.0942 38.8873 17.7542 42.4123 12.343V12.3448ZM28.2523 31.4755C24.7273 36.8961 21.0954 42.2455 17.5666 47.6661C24.3073 42.4611 30.7123 36.8661 37.3235 31.5242C34.2993 31.4899 31.2748 31.4742 28.2504 31.4773L28.2523 31.4755Z" fill="black"/>
</g>
<defs>
<clipPath id="clip0">
<rect width="60" height="60" fill="white"/>
</clipPath>
</defs>
</svg>
